<svg width="14" height="14" viewBox="0 0 14 14" fill="none" xmlns="http://www.w3.org/2000/svg">
<path fill-rule="evenodd" clip-rule="evenodd" d="M14 9.89949V4.1005L9.89949 0H4.1005L0 4.1005V9.89949L4.1005 14H9.89949L14 9.89949ZM4.62769 1.27273H9.37231L12.7273 4.62769V9.37231L9.37231 12.7273H4.62769L1.27273 9.37231V4.62769L4.62769 1.27273ZM7.00022 10.8171C7.35179 10.8171 7.63679 10.5322 7.63679 10.1808C7.63679 9.82932 7.35179 9.5444 7.00022 9.5444C6.64865 9.5444 6.36365 9.82932 6.36365 10.1808C6.36365 10.5322 6.64865 10.8171 7.00022 10.8171ZM7.63862 3.18077H6.36548V8.27168H7.63862V3.18077Z" fill="#FF6464"/>
</svg>
