<svg width="32" height="36" viewBox="0 0 32 36" fill="none" xmlns="http://www.w3.org/2000/svg">
<path fill-rule="evenodd" clip-rule="evenodd" d="M13.055 0C12.3995 0 11.8681 0.531355 11.8681 1.18681C11.8681 1.84227 12.3995 2.37363 13.055 2.37363H14.6374V4.39542C11.259 4.64592 8.17576 5.95715 5.71964 7.99727L3.60843 5.88605C3.14495 5.42257 2.3935 5.42257 1.93002 5.88605C1.46654 6.34953 1.46654 7.10098 1.93002 7.56446L4.01166 9.6461C1.51646 12.4433 0 16.1325 0 20.1758C0 28.9152 7.08473 36 15.8242 36C24.5637 36 31.6484 28.9152 31.6484 20.1758C31.6484 16.1325 30.1319 12.4433 27.6367 9.64611L29.7184 7.56446C30.1819 7.10098 30.1819 6.34953 29.7184 5.88605C29.2549 5.42257 28.5034 5.42257 28.04 5.88605L25.9288 7.99727C23.4726 5.95715 20.3894 4.64592 17.011 4.39542V2.37363H18.5934C19.2489 2.37363 19.7802 1.84227 19.7802 1.18681C19.7802 0.531355 19.2489 0 18.5934 0H13.055ZM15.8242 33.6263C23.2527 33.6263 29.2748 27.6043 29.2748 20.1758C29.2748 12.7472 23.2527 6.72522 15.8242 6.72522C8.39565 6.72522 2.37363 12.7472 2.37363 20.1758C2.37363 27.6043 8.39565 33.6263 15.8242 33.6263ZM22.2019 13.7981C22.6653 14.2616 22.6653 15.0131 22.2019 15.4766L18.4332 19.2452C18.5369 19.5361 18.5934 19.8494 18.5934 20.1758C18.5934 21.7053 17.3536 22.9451 15.8242 22.9451C14.2948 22.9451 13.055 21.7053 13.055 20.1758C13.055 18.6464 14.2948 17.4066 15.8242 17.4066C16.1507 17.4066 16.4639 17.4631 16.7548 17.5668L20.5235 13.7981C20.9869 13.3347 21.7384 13.3347 22.2019 13.7981Z" fill="#E6EBF1"/>
<path fill-rule="evenodd" clip-rule="evenodd" d="M22.2018 13.7978C22.6653 14.2613 22.6653 15.0127 22.2018 15.4762L18.4332 19.2449C18.5369 19.5357 18.5934 19.849 18.5934 20.1755C18.5934 21.7049 17.3536 22.9447 15.8242 22.9447C14.2948 22.9447 13.0549 21.7049 13.0549 20.1755C13.0549 18.6461 14.2948 17.4063 15.8242 17.4063C16.1506 17.4063 16.4639 17.4628 16.7547 17.5665L20.5234 13.7978C20.9869 13.3343 21.7384 13.3343 22.2018 13.7978Z" fill="#5888EA"/>
</svg>
