<svg width="86" height="45" viewBox="0 0 86 45" fill="none" xmlns="http://www.w3.org/2000/svg">
<path d="M2.63812 43.467C2.13965 43.467 1.68821 43.3589 1.28379 43.1425C0.884076 42.9215 0.569006 42.6182 0.338582 42.2326C0.112861 41.847 0 41.412 0 40.9276C0 40.4433 0.115212 40.0083 0.345636 39.6227C0.57606 39.2371 0.89113 38.9361 1.29084 38.7198C1.69526 38.4988 2.14671 38.3883 2.64517 38.3883C3.04959 38.3883 3.41874 38.4588 3.75262 38.5999C4.0865 38.741 4.36865 38.9455 4.59908 39.2136L4.00656 39.7708C3.64916 39.3852 3.20948 39.1924 2.6875 39.1924C2.34891 39.1924 2.0456 39.2677 1.77756 39.4181C1.50951 39.5639 1.30025 39.7685 1.14977 40.0318C0.999288 40.2952 0.924047 40.5938 0.924047 40.9276C0.924047 41.2615 0.999288 41.5601 1.14977 41.8235C1.30025 42.0868 1.50951 42.2937 1.77756 42.4442C2.0456 42.59 2.34891 42.6629 2.6875 42.6629C3.20948 42.6629 3.64916 42.4677 4.00656 42.0774L4.59908 42.6417C4.36865 42.9098 4.08415 43.1143 3.74557 43.2554C3.41169 43.3965 3.04254 43.467 2.63812 43.467Z" fill="#35302F"/>
<path d="M9.78858 42.6276V43.3965H6.08533V38.4588H9.68982V39.2277H7.00233V40.5115H9.38651V41.2662H7.00233V42.6276H9.78858Z" fill="#35302F"/>
<path d="M13.4772 38.4588C13.9051 38.4588 14.2766 38.5294 14.5917 38.6704C14.9114 38.8115 15.156 39.0137 15.3253 39.2771C15.4945 39.5404 15.5792 39.8531 15.5792 40.2152C15.5792 40.5726 15.4945 40.8853 15.3253 41.1534C15.156 41.4167 14.9114 41.6189 14.5917 41.76C14.2766 41.9011 13.9051 41.9716 13.4772 41.9716H12.3627V43.3965H11.4457V38.4588H13.4772ZM13.4348 41.1957C13.8346 41.1957 14.1379 41.111 14.3448 40.9418C14.5517 40.7725 14.6551 40.5303 14.6551 40.2152C14.6551 39.9001 14.5517 39.658 14.3448 39.4887C14.1379 39.3194 13.8346 39.2347 13.4348 39.2347H12.3627V41.1957H13.4348Z" fill="#35302F"/>
<path d="M20.3333 40.8289C20.6484 40.9135 20.8882 41.0593 21.0528 41.2662C21.2174 41.4684 21.2997 41.7224 21.2997 42.028C21.2997 42.4607 21.1398 42.7969 20.8201 43.0367C20.5003 43.2766 20.0371 43.3965 19.4305 43.3965H17.0886V38.4588H19.2964C19.8513 38.4588 20.284 38.5693 20.5943 38.7903C20.9047 39.0114 21.0599 39.3241 21.0599 39.7285C21.0599 39.9871 20.9964 40.2105 20.8694 40.3986C20.7472 40.5867 20.5685 40.7301 20.3333 40.8289ZM17.9915 40.5679H19.2188C19.5151 40.5679 19.7408 40.5091 19.896 40.3916C20.0512 40.274 20.1288 40.1 20.1288 39.8696C20.1288 39.6392 20.0512 39.4652 19.896 39.3476C19.7408 39.2253 19.5151 39.1642 19.2188 39.1642H17.9915V40.5679ZM19.4022 42.6911C20.0512 42.6911 20.3757 42.4466 20.3757 41.9575C20.3757 41.4778 20.0512 41.238 19.4022 41.238H17.9915V42.6911H19.4022Z" fill="#35302F"/>
<path d="M22.9862 38.4588H23.8891V41.9646L26.5413 38.4588H27.3949V43.3965H26.492V39.8978L23.8397 43.3965H22.9862V38.4588Z" fill="#35302F"/>
<path d="M31.6854 43.467C31.187 43.467 30.7355 43.3589 30.3311 43.1425C29.9314 42.9215 29.6163 42.6182 29.3859 42.2326C29.1602 41.847 29.0473 41.412 29.0473 40.9276C29.0473 40.4433 29.1625 40.0083 29.393 39.6227C29.6234 39.2371 29.9384 38.9361 30.3382 38.7198C30.7426 38.4988 31.194 38.3883 31.6925 38.3883C32.0969 38.3883 32.4661 38.4588 32.7999 38.5999C33.1338 38.741 33.416 38.9455 33.6464 39.2136L33.0539 39.7708C32.6965 39.3852 32.2568 39.1924 31.7348 39.1924C31.3962 39.1924 31.0929 39.2677 30.8249 39.4181C30.5568 39.5639 30.3476 39.7685 30.1971 40.0318C30.0466 40.2952 29.9714 40.5938 29.9714 40.9276C29.9714 41.2615 30.0466 41.5601 30.1971 41.8235C30.3476 42.0868 30.5568 42.2937 30.8249 42.4442C31.0929 42.59 31.3962 42.6629 31.7348 42.6629C32.2568 42.6629 32.6965 42.4677 33.0539 42.0774L33.6464 42.6417C33.416 42.9098 33.1315 43.1143 32.7929 43.2554C32.459 43.3965 32.0899 43.467 31.6854 43.467Z" fill="#35302F"/>
<path d="M39.5201 38.4588V43.3965H38.6031V41.2803H36.0496V43.3965H35.1326V38.4588H36.0496V40.4974H38.6031V38.4588H39.5201Z" fill="#35302F"/>
<path d="M43.8184 40.1306C44.4109 40.1306 44.8647 40.2646 45.1798 40.5326C45.4996 40.796 45.6594 41.1886 45.6594 41.7106C45.6594 42.2561 45.4855 42.6746 45.1375 42.9662C44.7895 43.2531 44.3004 43.3965 43.6703 43.3965H41.5471V38.4588H42.45V40.1306H43.8184ZM43.628 42.6911C43.9853 42.6911 44.2604 42.6088 44.4532 42.4442C44.646 42.2796 44.7425 42.0398 44.7425 41.7247C44.7425 41.1275 44.371 40.8289 43.628 40.8289H42.45V42.6911H43.628ZM46.3719 38.4588H47.2748V43.3965H46.3719V38.4588Z" fill="#35302F"/>
<path d="M49.3046 38.4588H50.2075V41.9646L52.8597 38.4588H53.7132V43.3965H52.8103V39.8978L50.1581 43.3965H49.3046V38.4588ZM51.4983 38.1273C51.0751 38.1273 50.7553 38.0403 50.539 37.8663C50.3274 37.6923 50.2192 37.4384 50.2145 37.1045H50.8564C50.8611 37.2785 50.9176 37.4125 51.0257 37.5066C51.1339 37.6006 51.2914 37.6476 51.4983 37.6476C51.7005 37.6476 51.8581 37.6006 51.9709 37.5066C52.0885 37.4125 52.1496 37.2785 52.1543 37.1045H52.7892C52.7845 37.4337 52.6716 37.6876 52.4506 37.8663C52.2343 38.0403 51.9169 38.1273 51.4983 38.1273Z" fill="#35302F"/>
<path d="M63.3602 42.6206V44.4828H62.5138V43.3965H58.3238V38.4588H59.2267V42.6206H61.7167V38.4588H62.6266V42.6206H63.3602Z" fill="#35302F"/>
<path d="M68.5376 42.6276V43.3965H64.8344V38.4588H68.4389V39.2277H65.7514V40.5115H68.1355V41.2662H65.7514V42.6276H68.5376Z" fill="#35302F"/>
<path d="M74.5822 38.4588V43.3965H73.6652V41.2803H71.1117V43.3965H70.1947V38.4588H71.1117V40.4974H73.6652V38.4588H74.5822Z" fill="#35302F"/>
<path d="M80.1854 39.2347H78.5489V43.3965H77.639V39.2347H76.0096V38.4588H80.1854V39.2347Z" fill="#35302F"/>
<path d="M83.6426 38.4588C84.0705 38.4588 84.442 38.5294 84.7571 38.6704C85.0769 38.8115 85.3214 39.0137 85.4907 39.2771C85.66 39.5404 85.7446 39.8531 85.7446 40.2152C85.7446 40.5726 85.66 40.8853 85.4907 41.1534C85.3214 41.4167 85.0769 41.6189 84.7571 41.76C84.442 41.9011 84.0705 41.9716 83.6426 41.9716H82.5281V43.3965H81.6111V38.4588H83.6426ZM83.6003 41.1957C84 41.1957 84.3033 41.111 84.5102 40.9418C84.7171 40.7725 84.8206 40.5303 84.8206 40.2152C84.8206 39.9001 84.7171 39.658 84.5102 39.4887C84.3033 39.3194 84 39.2347 83.6003 39.2347H82.5281V41.1957H83.6003Z" fill="#35302F"/>
<path d="M21.9924 9.7998V32.0996H15.8122L7.33826 21.9691V32.0996H0.0111694V9.7998H6.19141L14.6654 19.9303V9.7998H21.9924Z" fill="#35302F"/>
<path d="M53.0233 32.6098C50.6658 32.6098 48.5421 32.1213 46.6519 31.1444C44.7617 30.1462 43.275 28.7657 42.1919 27.003C41.13 25.219 40.5991 23.2014 40.5991 20.9502C40.5991 18.6989 41.13 16.6919 42.1919 14.9292C43.275 13.1452 44.7617 11.7647 46.6519 10.7878C48.5421 9.78962 50.6658 9.29053 53.0233 9.29053C55.1895 9.29053 57.1222 9.67281 58.8212 10.4374C60.5203 11.2019 61.922 12.3063 63.0263 13.7505L58.2797 17.9875C56.8992 16.246 55.2745 15.3752 53.4055 15.3752C51.8339 15.3752 50.5703 15.8849 49.6146 16.9043C48.6589 17.9025 48.181 19.2511 48.181 20.9502C48.181 22.6492 48.6589 24.0084 49.6146 25.0278C50.5703 26.026 51.8339 26.5251 53.4055 26.5251C55.2745 26.5251 56.8992 25.6544 58.2797 23.9129L63.0263 28.1498C61.922 29.594 60.5203 30.6984 58.8212 31.4629C57.1222 32.2275 55.1895 32.6098 53.0233 32.6098Z" fill="#35302F"/>
<path d="M86 26.4291V32.0997H67.4592V9.7998H85.5858V15.4703H74.85V18.0826H82.9361V23.4983H74.85V26.4291H86Z" fill="#35302F"/>
<path fill-rule="evenodd" clip-rule="evenodd" d="M33.9661 32.0999H30.1033C30.0262 31.966 29.8143 31.1796 29.5844 30.3266C29.3132 29.3203 29.017 28.2212 28.8876 27.9903L28.1535 27.994L27.3426 27.1931L32.9536 25.186L28.5296 25.5096C28.5254 25.4757 28.5212 25.4243 28.5163 25.3634C28.4972 25.1293 28.4668 24.7547 28.3796 24.6916L27.3377 23.874L33.194 21.8143C33.1998 21.7947 33.2123 21.7867 33.2246 21.7788C33.2312 21.7746 33.2377 21.7705 33.2432 21.7646L29.6986 22.0376C29.4977 22.0423 29.3342 22.0712 29.1712 22.1C28.9738 22.1348 28.7771 22.1696 28.5153 22.1611L28.5226 21.3887L27.2873 20.5322L33.2003 18.449L28.5065 18.7616L28.4749 17.9905L27.3209 17.081L32.7783 15.2983L28.3827 15.3319L28.3827 11.9479L35.1827 9.68124L35.1867 14.4215C35.3053 14.5253 35.5239 14.6857 35.7617 14.8603C36.1655 15.1566 36.6245 15.4936 36.7436 15.6627C36.1489 16.1543 35.6005 16.6117 35.1749 16.9994C35.1766 17.2564 35.1666 17.4266 35.1599 17.5402C35.1518 17.6792 35.1486 17.7333 35.1779 17.7579C35.5032 18.0307 35.8059 18.2646 36.1215 18.5085C36.3245 18.6654 36.5329 18.8264 36.7561 19.0046C36.1319 19.5471 35.7419 19.8706 35.1793 20.2762L35.187 21.1051C35.2742 21.2346 35.7101 21.5619 36.1114 21.8631C36.3648 22.0534 36.6043 22.2332 36.7336 22.3464C36.5118 22.5233 36.3324 22.6639 36.1796 22.7837C35.7438 23.1251 35.5231 23.298 35.1484 23.6658C35.1484 23.6658 35.1286 24.2076 35.125 24.5579C35.5223 24.8052 35.8017 25.0041 36.0944 25.2125C36.2973 25.3569 36.5065 25.5058 36.7659 25.6787C36.2988 26.1127 35.9123 26.4105 35.4871 26.7383C35.388 26.8147 35.2867 26.8927 35.1818 26.9745L33.9661 32.0999ZM35.1808 7.49853L28.3828 9.76455L28.3828 6.3049H24.8669C24.8669 2.82207 27.5648 0.065918 30.8554 0.065918V2.76385H32.9103V0.065927C36.5017 0.065927 38.6938 2.79061 38.6938 6.3049H35.1798L35.1808 7.49853Z" fill="#35302F"/>
</svg>
