<svg width="204" height="82" viewBox="0 0 204 82" fill="none" xmlns="http://www.w3.org/2000/svg">
<path d="M54.0708 64.5764C53.9966 64.5415 46.4962 61.0818 35.0469 61.0818C23.7329 61.0818 17.8357 64.4454 17.7789 64.4803L16.1627 66.1927C16.1627 66.1927 15.3414 65.3671 15.3414 63.4276C15.3414 61.488 16.0098 60.942 16.0098 60.942C16.2762 60.7804 22.6977 57.0542 35.0469 57.0542C47.3131 57.0542 55.2066 60.7061 55.5386 60.859C56.0066 61.6369 56.2514 62.5285 56.2462 63.4363C56.2223 64.4281 55.9585 65.3993 55.4774 66.267L54.0708 64.5764Z" fill="#35302F"/>
<path d="M91.4023 11.5978C97.2558 9.79811 101.327 11.3183 102.76 10.5931L114.388 4.52119L113.982 3.2107L113.423 1.31049L113.017 0L99.986 1.5158C98.3785 1.72985 95.8667 5.27691 90.0132 7.07665L60.0379 16.32L60.4441 17.6305L61.0208 19.5045L61.427 20.815C61.427 20.815 85.5488 13.3976 91.4023 11.5978Z" fill="#35302F"/>
<path d="M102.127 9.61003C102.127 9.61003 98.1299 9.01594 97.3698 7.29046C96.6097 5.56498 99.9908 2.72559 99.9908 2.72559C99.9908 2.72559 92.5646 7.22931 92.9534 8.50048C93.3291 9.64061 102.127 9.61003 102.127 9.61003Z" fill="white"/>
<path fill-rule="evenodd" clip-rule="evenodd" d="M8.5205 42.527C8.26968 42.5024 8.03589 42.4794 7.81895 42.4598C5.35523 42.237 1.95669 38.1352 1.95669 38.1352L1.31018 36.0515C1.31018 36.0515 1.82127 30.744 3.73022 29.1802C3.88479 29.0525 4.04981 28.9143 4.22614 28.7667C6.77088 26.6361 11.6723 22.5324 21.5136 19.5175C34.0956 15.6457 42.3664 15.5585 48.0161 15.4989C50.946 15.468 53.1709 15.4446 54.9267 14.9046C58.5874 13.7688 59.627 12.4976 60.6055 11.1871C60.9404 10.7306 61.3935 10.3742 61.916 10.1562L65.1923 9.14714C66.0659 8.87631 66.5027 9.99896 66.5027 9.99896L68.1889 15.4768L68.8311 17.5605L70.5085 23.0209C70.5085 23.0209 70.7662 24.1916 69.8925 24.4624L66.6251 25.489C66.0666 25.6086 65.4859 25.5708 64.9476 25.3798C63.3881 24.8381 61.8287 24.3794 58.1462 25.5108C56.3877 26.0487 54.531 27.282 52.0844 28.9073C47.3778 32.0339 40.4879 36.6108 27.9132 40.4766C18.1646 43.4743 11.8456 42.8536 8.5205 42.527ZM5.18198 35.1375C5.16356 35.3336 5.18396 35.5313 5.24201 35.7195C5.36154 36.0951 5.62466 36.4082 5.97404 36.5907C6.32342 36.7732 6.73074 36.8102 7.10728 36.6936L8.77597 36.2C8.96419 36.1422 9.13917 36.0478 9.29089 35.9223C9.44262 35.7968 9.56812 35.6426 9.66021 35.4686C9.7523 35.2945 9.80919 35.104 9.82761 34.908C9.84604 34.7119 9.82563 34.5142 9.76758 34.326C9.64976 33.9466 9.38646 33.6292 9.03527 33.4434C8.68408 33.2575 8.27358 33.2184 7.89357 33.3344L6.23362 33.8455C6.0454 33.9033 5.87042 33.9977 5.7187 34.1232C5.56697 34.2487 5.44147 34.4029 5.34938 34.577C5.25729 34.751 5.2004 34.9415 5.18198 35.1375Z" fill="#35302F"/>
<path d="M0 35.9252C0.0524197 35.3573 0.585353 30.3207 2.68651 28.3375C2.7564 28.2719 2.82192 28.2151 2.89182 28.1584L3.42475 27.7215C6.11563 25.485 11.0824 21.3307 21.0814 18.251C33.8456 14.3196 42.3376 14.2366 47.9552 14.1754C50.7291 14.1448 52.922 14.123 54.5077 13.6381C56.9671 12.8824 57.9718 12.1179 58.5091 11.6068C58.8867 11.2378 59.2289 10.8341 59.5312 10.4012C60.0291 9.72994 60.7058 9.21224 61.4839 8.90724L64.8082 7.88505C66.158 7.47006 67.3112 8.39178 67.748 9.51443L71.7931 22.6456L71.8193 22.746C71.8804 23.0038 72.1251 24.3448 71.1728 25.2447C70.9239 25.4769 70.625 25.6488 70.2991 25.747L67.0229 26.7561H66.9748C66.1595 26.9393 65.3091 26.8909 64.5199 26.6163C63.2094 26.1533 61.9513 25.7165 58.544 26.7649C56.9714 27.2454 55.1455 28.4598 52.8346 29.9974C48.1431 33.1164 41.0621 37.8167 28.311 41.7438C21.8813 43.7321 15.1264 44.4517 8.42209 43.8624C8.17747 43.8624 7.911 43.8056 7.69695 43.7881C4.83135 43.526 2.05747 40.3809 1.4328 39.6252C1.06494 39.2232 0.757404 38.77 0.519828 38.2797C0.231248 37.7118 0.0645985 37.0899 0.0305781 36.4538L0 35.9252ZM3.14081 37.489C4.4513 39.0005 6.6704 41.0274 7.94595 41.1453L8.65361 41.2108C11.9342 41.5341 18.0455 42.1369 27.5422 39.2145C39.9263 35.3835 46.8107 30.8318 51.3625 27.8045C53.8525 26.1533 55.8182 24.8472 57.7577 24.2487C61.6892 23.0431 63.5326 23.4843 65.3891 24.1351C65.67 24.2301 65.9695 24.2571 66.2628 24.2138L69.2027 23.3095L65.2712 10.506L62.3401 11.4059C62.1601 11.4894 61.9949 11.6015 61.8508 11.7379C61.774 11.81 61.7038 11.889 61.6411 11.9738C61.248 12.5365 60.8035 13.0615 60.3132 13.542C59.1337 14.6559 57.5786 15.4728 55.2722 16.163C53.3326 16.7614 50.9737 16.7833 47.9858 16.8182C42.5167 16.875 34.2562 16.9624 21.859 20.7759C12.3667 23.7027 7.65327 27.6342 5.11965 29.744L4.56925 30.1809C3.57327 31.0152 2.88308 33.9726 2.6603 35.9208L3.14081 37.489Z" fill="#35302F"/>
<path d="M64.8389 20.0942C64.6991 19.6573 67.0886 18.8535 67.272 19.4389C67.4555 20.0243 68.2811 22.5011 67.9884 22.5885C67.5516 22.7239 66.9138 22.9073 66.1668 23.1389C65.4199 23.3704 62.0301 22.2783 62.0301 22.2783C62.0301 22.2783 65.1578 21.7366 65.5247 21.6231C65.8917 21.5095 64.9743 20.5354 64.8389 20.0942Z" fill="white"/>
<path d="M68.5826 27.7342V27.5682C68.2856 23.5493 64.3629 22.7193 63.7295 22.6145C62.653 22.3171 61.5469 22.1399 60.4314 22.0859C60.2392 22.0859 57.2425 22.3699 56.5611 22.5708C54.8662 23.0688 53.0184 23.8376 51.2579 23.9993C48.637 24.2395 45.5355 23.0601 43.561 23.9381C41.3769 24.9079 42.1544 27.2493 42.2767 28.136C42.8169 30.2688 44.0604 32.1571 45.8063 33.4959C46.7368 35.2433 43.3601 34.4963 41.5691 35.5141C37.6376 37.7419 32.7145 38.1351 28.4641 36.877C25.7733 36.0951 22.2786 35.3306 19.5703 34.7278C17.654 34.3714 15.7583 33.9121 13.8915 33.3518C14.1186 34.4439 14.3676 35.3481 14.5424 35.9335C14.3458 38.4365 13.8522 45.9806 14.6341 50.9255C14.9311 52.7995 16.0582 54.7215 17.1502 56.6043C17.7749 57.6658 18.1549 58.3516 18.2904 58.6617C18.2904 59.6402 18.2904 62.5714 18.2467 65.734C19.5834 65.9088 20.8677 66.2058 22.1782 66.4461C22.4403 64.5939 22.7024 63.0388 22.8596 62.9514C23.1173 62.5845 23.4275 64.5153 23.7333 66.6732C24.3129 66.7482 24.8962 66.792 25.4806 66.8043C28.5384 66.8523 31.57 66.8261 34.6147 66.8043C37.4454 66.8043 39.6164 66.8654 42.2418 66.0966C45.0506 65.2754 47.9206 65.0307 50.7818 64.4629C51.1277 64.3949 51.4781 64.3525 51.8302 64.3362V62.152L52.1404 60.5358L58.5355 54.6036C58.7933 54.3459 64.8434 48.2477 66.7698 44.3905C68.6962 40.5333 68.6307 29.8266 68.5826 27.7342Z" fill="#35302F"/>
<path d="M65.42 27.7913C65.3283 26.5769 62.8209 25.7382 61.5934 25.5372C60.3659 25.3363 51.8302 26.4109 51.8302 26.4109L45.7452 26.293C45.7452 26.293 44.3342 26.839 45.1773 29.093C46.0204 31.3471 50.9653 33.8982 50.9653 33.8982L57.5178 34.8461L57.2993 35.8159C57.2993 35.8159 55.5258 35.9862 54.6216 36.1304C53.7173 36.2745 53.3504 37.0565 52.0312 37.5195C50.7119 37.9825 48.0211 37.2661 43.3251 40.0837C38.6292 42.9013 36.5761 52.3936 36.5761 52.3936C36.5761 52.3936 36.1393 42.5299 38.3715 39.9133C40.6037 37.2967 42.8097 36.5279 44.3473 36.1915C45.885 35.8552 49.5063 35.3179 49.5063 35.3179C48.1473 34.7324 46.9123 33.8933 45.8675 32.8454C45.8675 32.8454 45.0419 33.5312 43.0412 33.7802C42.8144 34.106 42.5242 34.3827 42.1879 34.5936C41.8516 34.8045 41.4762 34.9454 41.0842 35.0077C37.9652 35.4446 34.3876 35.497 31.7841 35.9906C31.0557 36.159 30.2952 36.126 29.5842 35.8951C28.8731 35.6643 28.2383 35.2442 27.7478 34.6801C25.4326 34.7718 23.1217 34.4311 21.3045 32.9983C19.9675 33.391 18.5925 33.64 17.2027 33.7409C17.4779 34.8636 17.7225 35.5887 17.7225 35.5887C17.7225 35.5887 16.8751 45.0155 17.7225 50.4409C18.1113 52.8828 21.4181 56.906 21.4181 58.3738C21.4181 58.7713 21.4181 62.5149 21.4181 66.2935C22.7529 66.5852 24.1109 66.7577 25.4763 66.809C28.5341 66.857 31.5657 66.8308 34.6104 66.809C37.441 66.809 39.6121 66.8701 42.2374 66.1013C44.3471 65.5503 46.4887 65.1302 48.6501 64.8432V61.8641L49.2049 58.9417L56.2597 52.3412C56.2597 52.3412 62.1831 46.3741 63.8868 42.958C65.5904 39.542 65.42 27.7913 65.42 27.7913Z" fill="white"/>
<path d="M64.9041 27.8129C65.0264 28.8613 65.0526 28.7652 64.9041 30.6567C64.5153 35.3919 59.2908 40.3543 56.1675 41.4202C47.5663 44.3251 41.2672 39.865 41.1493 47.4222C40.5945 48.5798 38.6593 44.8362 38.3099 45.8671C38.406 42.6608 37.6197 41.6211 38.8079 40.232C40.992 37.694 43.0844 36.9951 44.4866 36.6893C45.5918 36.4534 47.7847 36.0952 48.9117 35.9205C49.3769 35.6969 49.8043 35.4022 50.1786 35.0468L49.7417 34.8502L49.5626 34.7585C49.2437 34.7279 58.1289 34.7323 58.1813 34.4178C58.6836 31.4473 46.4131 28.407 45.5132 27.3892C45.2904 27.4765 44.9235 28.3196 44.4779 29.3462C44.6149 29.7513 44.6828 30.1766 44.6789 30.6042C44.6553 31.1887 44.5112 31.7621 44.2556 32.2883C44 32.8145 43.6385 33.2822 43.1936 33.662C42.9661 34.0187 42.6662 34.3236 42.3132 34.5569C41.9603 34.7902 41.5622 34.9467 41.1449 35.0162C38.0259 35.4531 34.4483 35.5055 31.8448 35.9991C31.1164 36.1675 30.3559 36.1345 29.6449 35.9036C28.9338 35.6727 28.299 35.2527 27.8085 34.6886C25.4889 34.7803 23.1824 34.4396 21.3608 33.0068C19.8556 33.4439 18.3046 33.7049 16.7392 33.7844C16.9707 34.7235 17.176 35.405 17.2634 35.6584C17.1673 36.7679 16.4683 45.3516 17.294 50.5106C17.508 51.8866 18.5564 53.6689 19.4781 55.2415C20.1858 56.4427 20.9852 57.8057 20.9852 58.3648C20.9852 58.7623 20.9852 62.0473 20.9852 66.1841C22.4865 66.5269 24.0159 66.733 25.5544 66.8C28.6122 66.848 31.6438 66.8218 34.6885 66.8C37.5192 66.8 39.6903 66.8612 42.3156 66.0923C44.6133 65.424 46.9547 65.1313 49.3049 64.7382L49.2656 61.9031L49.781 59.1904L56.7135 52.7035C56.9713 52.4458 62.7287 46.6272 64.4542 43.1762C65.4239 41.2367 65.7996 36.8247 65.9394 33.2165C65.8782 33.2165 65.7603 33.2514 65.6686 33.2689C66.3981 32.8408 66.3194 27.5202 64.9041 27.8129Z" fill="#D8B8A1"/>
<path d="M22.9908 48.0951C26.8218 49.0474 34.2043 48.7766 34.2043 47.3525C34.2043 45.9284 30.3165 42.5474 27.2412 42.1979C19.4743 41.3504 20.5315 47.4835 22.9908 48.0951Z" fill="white"/>
<path d="M17.2503 50.5063C17.4644 51.8823 18.5128 53.6646 19.4345 55.2372C20.1421 56.4384 20.9415 57.8014 20.9415 58.3605C20.9415 58.9196 20.9415 62.3662 20.9415 66.1841L21.9462 66.3763C21.9462 62.4842 21.9725 58.9065 21.9725 58.3605C21.9725 57.5655 21.3478 56.4603 20.33 54.7173C19.4563 53.2234 18.4603 51.5328 18.2725 50.349C17.4294 45.0459 18.2725 35.7152 18.2725 35.6235V35.5143L18.2376 35.4094C18.2376 35.4094 18.006 34.7192 17.7483 33.6621C17.4032 33.6971 17.0581 33.7233 16.7086 33.7407C16.9402 34.6799 17.1455 35.3614 17.2328 35.6147C17.1236 36.7461 16.4247 45.3299 17.2503 50.5063Z" fill="#35302F"/>
<path d="M66.3978 29.9231L66.1794 28.1758C66.0571 26.5027 62.8202 25.2185 61.6801 25.0306C61.4949 25.004 61.308 24.9923 61.121 24.9957C59.0023 24.9957 52.4237 25.8169 51.8034 25.8955L45.6572 25.7732L45.5611 25.8082C45.5611 25.8082 43.6871 26.5726 44.6874 29.2679C45.5873 31.6792 50.5147 34.2303 50.7244 34.3395L50.7987 34.3788H50.8816L56.9012 35.2524V35.318C56.3289 35.3791 55.2281 35.4971 54.5641 35.6019C54.0578 35.7077 53.5861 35.9391 53.1925 36.2746C52.7977 36.5888 52.3553 36.8381 51.882 37.0129C51.4536 37.1237 51.0139 37.1852 50.5715 37.1963C47.9017 37.3458 45.3155 38.1808 43.0624 39.6208C40.0701 41.4161 39.5677 39.647 38.5237 42.731C38.6198 39.529 37.5802 41.6127 38.7683 40.2236C40.9525 37.6856 42.9356 37.4366 44.3379 37.1308C45.8537 36.8032 49.6716 36.2746 49.7066 36.2746L51.2792 35.5495L49.7066 34.8331C48.4208 34.2757 47.2504 33.4831 46.2556 32.496L45.9236 32.1291L45.5436 32.448L44.9276 32.7538L45.8013 33.492C46.1464 33.3916 45.9498 33.492 45.8275 33.492C46.4585 34.069 47.1481 34.5785 47.885 35.0122C46.7056 35.2044 45.133 35.449 44.2287 35.6631C42.6867 35.9994 40.1007 36.5629 37.9908 39.5421C35.1383 43.5741 37.9296 48.685 37.9471 49.0956L42.0315 53.8614C42.0315 53.8614 39.144 43.1503 43.5953 40.4813C45.7204 39.1325 48.1582 38.356 50.672 38.2273C51.1971 38.2144 51.7183 38.1336 52.2227 37.987C52.7896 37.7804 53.3204 37.4855 53.7953 37.1133C54.061 36.8769 54.3804 36.709 54.7258 36.6241C55.5994 36.4843 57.3467 36.3139 57.3467 36.3096L57.7137 36.2746L58.1505 34.405C49.3877 33.4614 46.2775 30.5784 45.6572 28.9097C45.1111 27.4507 45.6572 26.9396 45.8668 26.7998L51.8558 26.9221H51.8907C51.965 26.9221 59.0023 26.0484 61.1166 26.0484C61.2475 26.0407 61.3788 26.0407 61.5097 26.0484C63.0299 26.3018 64.834 27.1318 64.9039 27.822C64.9039 28.3287 65.0612 39.529 63.458 42.731C61.8024 46.0378 55.9795 51.9044 55.9227 51.9831L48.7587 58.6884L48.1646 61.8642L48.1427 64.922L49.5798 64.4327V61.8642L50.0167 59.4092L56.7875 52.8567C57.0453 52.599 63.1434 46.6974 64.8689 43.2464C66.5944 39.7955 66.4284 30.408 66.3978 29.9231Z" fill="#35302F"/>
<path d="M29.0143 37.6856L36.8991 44.5482L46.7408 37.1308L53.9485 34.7282L48.7065 32.7625L44.1198 28.1758L23.0909 33.029L20.9461 34.5317L29.0143 37.6856Z" fill="#35302F"/>
<path d="M29.5647 54.1671C29.5647 54.1671 35.1343 52.7736 36.5933 51.9262C38.0523 51.0787 38.7774 48.7024 38.7774 48.7024L37.9737 43.6832L35.4313 43.29C35.4313 43.29 36.1783 49.4712 34.0247 51.1967C32.5991 52.2755 31.1097 53.2675 29.5647 54.1671Z" fill="#35302F"/>
<path d="M49.1659 59.7277L54.0322 56.6131V53.7432L46.3047 57.7052L49.1659 59.7277Z" fill="#35302F"/>
<path d="M18.8848 56.7355L21.9557 59.7278L22.5716 57.2684L23.9957 55.0886L21.5888 54.6256L18.8848 52.1226V56.7355Z" fill="#35302F"/>
<path d="M12.8073 28.1143C13.09 29.9758 13.5703 31.8019 14.2402 33.5615C14.8517 33.7363 15.4676 33.9285 16.0879 34.125C18.4687 34.6056 19.1763 29.1539 21.1858 30.543C23.3393 32.0283 27.6072 30.2678 27.6072 30.2678C34.1596 32.8539 34.0155 29.7655 36.5098 29.2413C37.663 28.8307 38.4886 30.1411 39.6549 29.7742C41.1314 29.3374 43.4554 27.5245 46.3996 26.415C46.3996 26.415 46.3996 28.1623 49.7807 28.4157C51.8687 28.5598 55.2367 27.2144 56.77 24.8206C58.1067 22.7325 57.9101 17.3944 57.9101 17.3944C57.9407 14.5201 58.9192 8.25158 57.6436 5.80096C56.0274 2.68636 54.0747 1.21861 49.4574 2.14906C47.745 2.49415 44.8008 4.18905 44.0058 5.7267C42.7169 5.20772 41.3215 5.00838 39.9389 5.14571L39.7816 5.16755C36.3918 5.60438 34.3431 6.97603 33.2292 8.06811C32.0019 7.39322 30.583 7.15161 29.2016 7.38228C28.8516 7.42826 28.5045 7.49388 28.1619 7.57886C25.6253 8.18257 23.3853 9.66711 21.841 11.7681H21.7929C21.0892 11.5829 20.3556 11.5399 19.635 11.6414C16.6252 12.0389 13.8907 14.7691 13.3709 15.3151L13.3141 15.3763L13.1437 15.5772C12.305 16.6737 10.9596 18.836 11.3964 20.9764L12.8073 28.1143Z" fill="#35302F"/>
<path d="M46.9643 19.6835C46.4051 19.0501 46.641 10.9731 46.641 10.9731L46.3047 8.25606C46.3047 8.25606 50.97 2.53358 54.5389 7.27756C54.9102 7.77118 54.4297 17.5518 54.4297 17.5518C54.4297 17.5518 48.4364 20.0942 46.9643 19.6835Z" fill="white"/>
<path d="M51.3537 15.5205C49.7287 15.7345 46.9854 15.8394 46.5922 14.3148C46.5922 16.6169 46.7582 20.1116 46.6796 21.3041C46.5223 24.0256 54.8396 24.292 54.6037 19.3908C54.7173 15.5685 54.6255 13.5635 54.6255 13.5635C54.0096 15.1317 52.7341 15.337 51.3537 15.5205Z" fill="#D8B8A1"/>
<path d="M44.8583 20.0333C44.8583 20.0333 42.8795 20.0683 42.5431 21.2259C41.6695 24.2837 43.7007 26.6426 43.7007 26.6426C43.7007 26.6426 41.9534 27.6778 40.2061 27.3808C38.4588 27.0837 37.7642 26.8085 36.7857 25.367C35.8072 23.9255 34.8287 11.0739 34.8287 11.0739C34.8287 11.0739 36.1392 8.81987 40.3415 8.30441C44.5438 7.78895 44.605 11.3142 44.605 11.3142L44.8583 20.0333Z" fill="white"/>
<path d="M35.1124 19.5175C35.6934 19.4083 34.5664 15.0793 35.025 15.005C35.3963 14.9439 36.3792 19.1943 37.2354 19.1418C38.3974 19.0719 41.0183 19.3035 42.4774 18.5303C44.762 17.3334 43.6175 15.4725 44.4868 15.3764C45.1551 15.3021 45.0066 18.2638 45.3036 18.2376L45.3604 20.0199V20.4873L45.2862 20.5397C45.2862 20.5397 46.3477 24.7202 43.6393 27.2407C42.9694 27.5714 42.2514 27.794 41.512 27.9003C41.0369 27.9705 40.5542 27.9705 40.0792 27.9003C38.1789 27.5858 37.3664 27.2188 36.318 25.6681C35.89 24.9823 35.4575 22.37 35.1124 19.5175Z" fill="#D8B8A1"/>
<path d="M43.8793 8.65349C43.0056 7.89777 41.8 7.60946 40.2623 7.77982H40.1225C35.8023 8.35207 34.4437 10.6847 34.3651 10.7809L34.2865 10.9163V11.0735C34.4481 13.2577 35.0859 24.458 36.0906 25.9258C37.0953 27.3935 37.9515 27.8391 39.8517 28.158C40.2885 28.2322 41.0224 27.9177 41.5248 27.8522C42.3773 27.7465 43.2034 27.4859 43.9623 27.0834L44.4908 26.7732L44.7355 25.9651C44.7355 25.9651 44.2986 24.2178 44.2986 24.1872C43.6827 26.2097 42.809 26.7208 41.4986 26.8693H41.3981C41.0229 26.9239 40.6419 26.9239 40.2667 26.8693C38.5936 26.5897 38.052 26.3495 37.2089 25.0696C36.5405 24.1217 35.7149 16.1626 35.3349 11.2089C35.6538 10.7721 36.973 9.26505 40.258 8.82822H40.389C41.6209 8.67533 42.5732 8.88064 43.2022 9.43541C43.7211 9.93529 44.0329 10.612 44.0759 11.3313L44.2986 18.421C44.3947 18.67 44.2681 24.7638 44.2986 25.039C44.4515 25.3928 44.1064 27.4197 44.2986 27.7648C44.3511 27.8653 45.8101 26.3932 45.8581 26.498L45.797 20.5659V20.046L45.1068 11.3094C45.0604 10.2977 44.6198 9.34435 43.8793 8.65349Z" fill="#35302F"/>
<path d="M34.4796 26.4197C34.4796 26.4197 34.401 28.2718 30.9282 28.7829C30.2101 28.9319 29.4623 28.791 28.8477 28.3908C28.2332 27.9907 27.8018 27.3638 27.6476 26.6468C27.6476 26.6468 25.2974 17.6656 25.0615 16.7744C24.7639 15.976 24.3535 15.2243 23.8428 14.5422C24.3627 13.5744 25.0827 12.7283 25.9548 12.0602C26.827 11.3922 27.8314 10.9174 28.9013 10.6675C32.6187 9.7502 32.8022 12.7206 32.8022 12.7206L34.4796 26.4197Z" fill="white"/>
<path d="M34.1733 19.6966L34.9858 26.3583V26.4412C34.9858 26.533 34.846 28.7215 30.9976 29.2894H30.9277C30.0883 29.4461 29.221 29.2657 28.5137 28.7874C27.8065 28.3091 27.3161 27.5713 27.1491 26.7339L25.7469 21.4046C26.2448 21.2998 24.563 17.9711 25.0654 17.8663C25.3144 17.8138 27.2845 21.0508 27.5379 20.9983C28.8964 20.7188 31.1898 20.3256 32.5527 20.0548C32.9109 19.9849 32.9895 16.997 33.3608 16.9446C33.7321 16.8921 33.837 19.7621 34.1733 19.6966Z" fill="#D8B8A1"/>
<path d="M27.0837 26.9872L24.3972 17.2808C24.1661 16.4374 23.8408 15.6226 23.4274 14.852L23.2483 14.6074L23.375 14.3366C23.9251 13.2966 24.6922 12.3871 25.6245 11.6696C26.5568 10.9521 27.6325 10.4434 28.7786 10.1779C30.2638 9.81099 31.4389 9.97262 32.2732 10.6497C32.862 11.1671 33.2334 11.8881 33.3129 12.6679L35.449 27.0571V27.1444C35.449 27.2362 35.2481 29.0141 31.3996 29.5819L31.037 29.6344L30.7531 29.713C28.2457 30.045 27.2846 28.0225 27.0837 26.9872ZM32.3257 12.7858V12.7552C32.2662 12.2489 32.022 11.7822 31.6398 11.4447C31.0807 11.0079 30.2027 10.8987 29.0625 11.1826C28.1145 11.4061 27.2201 11.8149 26.4306 12.3854C25.6412 12.9559 24.9724 13.6769 24.4627 14.5069C24.9383 15.1602 25.3151 15.8799 25.581 16.643L28.167 26.5023V26.5285C28.2248 26.8177 28.3393 27.0926 28.504 27.3373C28.6686 27.582 28.8801 27.7916 29.1263 27.9541C29.3724 28.1166 29.6483 28.2287 29.9381 28.2839C30.2278 28.3391 30.5256 28.3364 30.8142 28.2758H30.871C33.6274 27.8696 33.9288 26.6246 33.9812 26.4237L32.3257 12.7858Z" fill="#35302F"/>
<path d="M16.1318 28.717C17.528 28.821 18.9148 29.0254 20.2817 29.3286C19.5868 28.4075 19.0087 27.4039 18.5606 26.3407L18.5343 26.2795C17.783 24.4492 17.0535 22.5184 17.0797 21.968C17.1234 20.8454 17.8529 21.4875 17.8529 21.4875C17.8529 21.4875 19.5696 26.7338 21.8411 28.3195C24.1127 29.9052 25.4101 27.9526 25.5892 26.7731C25.7683 25.5937 23.2827 17.0362 23.2827 17.0362C23.2565 16.7828 23.108 15.3806 20.9675 14.804C18.827 14.2274 15.6644 17.473 15.6644 17.473C15.6644 17.473 14.2884 19.2728 14.498 20.3255C14.7077 21.3783 15.9396 27.5725 15.9396 27.5725C15.992 27.957 16.0575 28.3457 16.1318 28.717Z" fill="white"/>
<path d="M18.5345 26.2796C17.7832 24.4493 17.0537 22.5185 17.0799 21.9681C16.962 21.872 16.8396 21.7715 16.7261 21.6623C15.963 20.9109 15.2875 20.0756 14.7123 19.1724C14.5326 19.5441 14.46 19.9586 14.5026 20.3693C14.7123 21.4177 15.9441 27.6163 15.9441 27.6163C15.9966 27.9963 16.0621 28.372 16.1363 28.7433C17.5325 28.8473 18.9194 29.0517 20.2862 29.3549C19.5914 28.4338 19.0133 27.4301 18.5651 26.367L18.5345 26.2796Z" fill="#D8B8A1"/>
<path d="M23.7504 29.4117C22.955 29.476 22.1648 29.2355 21.5401 28.739C20.1815 27.7867 19.037 25.6812 18.2944 24.0037C19.0676 23.663 17.9624 22.9029 18.3337 23.6849C18.1546 23.3136 16.2238 22.2346 18.0192 21.4264C18.3119 21.2954 20.0723 23.3092 20.3737 23.1738C21.3872 22.7369 22.3569 22.3001 22.7326 22.156C22.8811 22.1123 23.1083 22.0424 23.3529 21.9769C23.5276 21.9244 23.2568 18.4211 23.4272 18.3774C23.5975 18.3337 24.2222 21.7366 24.3401 21.706L25.0522 21.5444C25.6463 23.8334 26.2098 26.2097 26.0875 26.8519C25.9477 27.7736 25.2094 29.2151 23.7504 29.4117Z" fill="#D8B8A1"/>
<path d="M46.6356 26.7079C46.8671 26.4109 46.7317 26.0308 47.0375 25.8343C46.9589 25.7775 46.3997 26.4371 46.3997 26.4371L45.8668 26.507L45.3601 26.5725C45.3601 26.5725 44.185 27.5292 41.5378 27.9223C37.7374 28.4946 36.8069 28.1058 36.7633 28.0315L35.9682 26.6424L35.8197 28.2062C35.8197 28.263 35.6013 29.7483 33.1987 30.6132C32.9156 30.7124 32.6227 30.7813 32.3251 30.8185C30.0885 31.1155 27.8956 29.6434 27.8738 29.6303L27.4631 29.3507L27.1705 29.7439C26.5182 30.4766 25.6099 30.9315 24.6325 31.0151C24.3806 31.0489 24.1266 31.0649 23.8724 31.0631C21.1378 31.0151 19.2201 26.6468 19.0323 26.1444L19.0061 26.0832C18.6383 25.2804 18.3189 24.4562 18.0494 23.6152C18.6828 25.2664 19.7225 27.7738 21.4917 29.01C22.1146 29.515 22.9067 29.7634 23.7064 29.7046C25.161 29.508 26.3842 28.2936 26.524 27.3719C26.7118 26.1531 24.6718 19.011 24.2262 17.4733C24.0362 16.7161 23.6453 16.0243 23.0948 15.4707C22.5443 14.9172 21.8546 14.5224 21.0985 14.3281C20.7334 14.2346 20.3534 14.2138 19.9802 14.267C17.7961 14.5597 15.3935 17.0321 15.293 17.137L15.2581 17.1806C15.1052 17.3816 13.751 19.1988 13.9957 20.4438L15.4372 27.6733C15.8006 29.9795 16.4736 32.2262 17.4379 34.3524C17.8398 34.4092 18.2373 34.4573 18.6392 34.4966L18.6042 34.4311C17.5648 32.2403 16.8398 29.9138 16.4506 27.5204V27.4855L15.0004 20.2428C14.8912 19.6837 15.5464 18.4955 16.0531 17.8272C16.2715 17.6044 18.3596 15.5163 20.1157 15.2848C20.3556 15.248 20.6004 15.2584 20.8364 15.3154C22.409 15.7522 22.7235 16.6259 22.7716 17.102V17.1501V17.1937C23.7894 20.6884 25.1698 25.9609 25.0562 26.6948C24.9601 27.3326 24.4446 28.2849 23.5972 28.3941C23.0581 28.4187 22.5291 28.2428 22.112 27.9005C20.0283 26.4327 18.3465 21.3655 18.3465 21.3131L18.3072 21.182L18.2023 21.0903C18.0856 20.9819 17.9477 20.8989 17.7974 20.8463C17.6471 20.7936 17.4875 20.7726 17.3287 20.7845C17.0578 20.8238 16.5948 21.016 16.5555 21.9334C16.5555 22.309 16.6953 23.1565 18.0494 26.4633L18.08 26.5376L18.2023 26.8215C18.8008 28.1669 20.8233 32.0635 23.8549 32.0635C24.1572 32.0682 24.4594 32.0506 24.7592 32.011C25.8393 31.8882 26.8537 31.4299 27.6597 30.7005C28.4547 31.1374 30.3899 32.1028 32.4648 31.8319C32.8281 31.7833 33.1853 31.6969 33.5307 31.5742C35.313 30.9364 36.1517 29.9579 36.5186 29.2372C37.3049 29.9143 38.9081 30.7486 41.8436 30.3118C43.2677 30.1021 43.473 30.0191 44.565 27.1841C45.2727 25.7731 46.4827 26.9132 46.6356 26.7079Z" fill="#35302F"/>
<path d="M44.2771 32.0417C45.9851 31.8757 42.6827 26.0965 44.3951 25.9785C47.0816 25.7994 56.1895 27.6035 58.8585 27.4375C62.5716 27.206 64.8868 30.6177 68.5999 30.3818C68.5999 29.163 68.5999 28.1976 68.5999 27.7346V27.573C68.3028 23.5498 62.7594 22.5057 62.1304 22.4009C61.7991 22.3535 61.4647 22.3316 61.1301 22.3354H60.4661C60.2695 22.3572 57.2597 23.0168 56.5783 23.209C54.8834 23.707 53.0356 23.8162 51.2752 23.9779C48.6542 24.2181 45.5527 23.0387 43.5782 23.9167C41.3941 24.8865 42.1716 27.2279 42.2939 28.1146C42.6424 29.5594 43.3213 30.9037 44.2771 32.0417Z" fill="#35302F"/>
<path d="M46.5928 30.2201C45.1775 27.9485 50.7209 29.7264 53.6782 30.7181C56.2293 31.5917 54.7834 31.4082 57.4699 31.2422C60.1564 31.0763 62.7643 30.8054 65.4158 30.6132C65.4377 28.9358 65.4158 27.7913 65.4158 27.7913C65.3241 26.5769 62.8167 25.7382 61.5892 25.5372C60.3617 25.3363 51.826 26.4109 51.826 26.4109L45.741 26.293C45.741 26.293 44.33 26.839 45.1731 29.093C45.5138 29.9842 45.5226 29.4076 46.5928 30.2201Z" fill="white"/>
<path d="M46.828 31.8011L48.3569 31.6831C47.1425 30.8094 45.9893 29.8004 45.6573 28.9092C45.1113 27.4502 45.6573 26.9391 45.867 26.7993L51.8559 26.9217H51.8909C51.9651 26.9217 59.0025 26.048 61.1167 26.048C61.2477 26.0402 61.3789 26.0402 61.5099 26.048C63.03 26.3014 64.8342 27.1313 64.904 27.8215C64.904 27.9744 64.904 29.0927 64.904 30.6653L65.9306 30.5823C65.9524 29.0228 65.9306 27.9307 65.9306 27.7909V27.7604C65.8083 26.0873 62.8204 25.2268 61.6802 25.0389C61.4951 25.0123 61.3081 25.0006 61.1211 25.004C59.0025 25.004 52.4238 25.8252 51.8035 25.9038L45.6573 25.7728L45.5612 25.8077C45.5612 25.8077 43.6872 26.5722 44.6875 29.2674C45.0195 30.1411 45.867 31.0148 46.828 31.8011Z" fill="#35302F"/>
<path d="M62.4666 23.9034C62.4666 25.5371 57.1285 23.9034 57.1285 23.9034V13.4195C57.1285 13.4195 56.8883 3.48158 57.9192 6.47824C58.9501 9.47489 59.3913 19.8103 59.3913 19.8103C59.3913 19.8103 62.436 22.2784 62.4666 23.9034Z" fill="#35302F"/>
<path d="M20.2556 50.8862C20.1202 50.7814 20.142 50.7246 20.2556 50.8862C21.2953 52.4457 23.2173 53.3587 25.0607 53.5378C25.1743 53.5378 25.1656 53.5683 25.0607 53.5378C24.2403 53.2519 23.4536 52.8769 22.715 52.4195" fill="#35302F"/>
<path d="M46.7408 55.3724C46.2559 55.5646 46.2384 55.5166 46.7408 55.3724C51.2794 54.0619 55.2328 51.3972 57.6615 47.2954C57.6615 47.2954 54.4814 50.3226 54.0926 50.6677" fill="#35302F"/>
<path d="M24.2484 62.0866C24.2484 62.6065 24.4363 63.1481 24.4363 62.6283L24.9779 60.7193C25.0209 59.5211 24.9049 58.3225 24.6328 57.1548C24.6984 56.6394 24.6984 56.6481 24.6328 57.1548" fill="#35302F"/>
<path d="M36.6498 69.574C24.3879 69.574 16.4944 65.9221 16.1624 65.7692L17.6345 62.0561L16.8963 63.9127L17.6302 62.0518C17.7044 62.0867 25.2048 65.5464 36.6498 65.5464C47.9637 65.5464 53.8609 62.1828 53.922 62.1479L55.6694 65.7037C55.4204 65.8478 49.0033 69.574 36.6498 69.574Z" fill="#35302F"/>
<path d="M19.7886 79.3153L17.1676 76.0434C15.9968 74.5923 15.3585 72.7839 15.3591 70.9194V63.4277H19.7886V79.3153Z" fill="#35302F"/>
<path d="M52.0266 79.3153V63.4277H56.2638V75.0955C56.2633 75.6509 56.1531 76.2008 55.9398 76.7137C55.7264 77.2265 55.414 77.6923 55.0204 78.0842C54.6268 78.4762 54.1598 78.7867 53.6461 78.9979C53.1324 79.2091 52.582 79.317 52.0266 79.3153Z" fill="#35302F"/>
<path d="M45.5785 26.3715C43.0405 27.2451 40.5549 28.1799 37.9077 28.8002C34.5703 29.5822 30.7699 30.6349 27.3233 30.7004C25.1392 30.7441 22.3566 30.1631 20.8277 28.3984C19.7662 27.1752 19.2463 26.0264 18.5081 24.6503C18.2998 24.2591 18.1315 23.8479 18.0057 23.4229L13.6898 24.6547C13.9176 25.6978 14.0911 26.752 14.2097 27.813C14.1005 26.9044 15.044 30.233 14.5679 29.1235C15.0047 30.1238 15.577 31.1504 15.7604 32.2425C16.1579 34.562 16.4594 36.8117 16.704 39.092C16.854 40.5903 16.6443 42.1029 16.0924 43.5039C24.5844 40.5641 35.3392 36.8554 45.1679 33.4831C45.0761 33.3564 44.9844 33.2384 44.897 33.103C43.2938 30.7004 43.9316 28.1363 45.5785 26.3715Z" fill="#35302F"/>
<path d="M8.082 40.4068C8.082 40.4068 11.2359 41.8877 20.3133 39.0963C25.0791 37.6286 30.3604 35.8164 43.0284 29.2676C43.5439 29.0012 43.0983 28.691 43.6837 29.7045C43.8977 30.0801 43.9065 29.9971 44.1293 30.3685L44.1729 30.4427C37.1312 33.6359 31.7086 36.1658 24.9 38.3493C10.2662 43.0424 8.082 40.4068 8.082 40.4068Z" fill="white"/>
<path d="M51.6906 71.5921C37.5504 74.9994 24.9915 71.3169 24.9915 71.3169C24.9915 71.3169 42.0279 73.0642 51.2013 68.7702C55.2726 66.8568 56.7578 70.3733 51.6906 71.5921Z" fill="#35302F"/>
<path d="M51.6906 75.6067C37.5504 79.014 24.9915 75.3359 24.9915 75.3359C24.9915 75.3359 42.0279 77.0832 51.2013 72.7892C55.2726 70.8759 56.7578 74.388 51.6906 75.6067Z" fill="#35302F"/>
<path d="M52.0304 79.6252C37.8902 83.0281 25.3313 79.35 25.3313 79.35C25.3313 79.35 42.3677 81.0974 51.5411 76.8033C55.6124 74.89 57.0976 78.4021 52.0304 79.6252Z" fill="#35302F"/>
<path d="M89.0349 77.8002C88.3866 77.8002 87.7995 77.6596 87.2736 77.3783C86.7537 77.0908 86.344 76.6964 86.0443 76.1949C85.7508 75.6934 85.604 75.1277 85.604 74.4978C85.604 73.8679 85.7538 73.3022 86.0535 72.8007C86.3531 72.2992 86.7629 71.9078 87.2827 71.6265C87.8087 71.3391 88.3958 71.1954 89.044 71.1954C89.57 71.1954 90.05 71.2871 90.4843 71.4706C90.9185 71.654 91.2854 71.9201 91.5851 72.2686L90.8145 72.9933C90.3497 72.4919 89.7779 72.2411 89.0991 72.2411C88.6587 72.2411 88.2643 72.339 87.9157 72.5347C87.5671 72.7243 87.295 72.9903 87.0993 73.3328C86.9036 73.6752 86.8057 74.0636 86.8057 74.4978C86.8057 74.932 86.9036 75.3203 87.0993 75.6628C87.295 76.0053 87.5671 76.2744 87.9157 76.4701C88.2643 76.6597 88.6587 76.7545 89.0991 76.7545C89.7779 76.7545 90.3497 76.5007 90.8145 75.9931L91.5851 76.7269C91.2854 77.0755 90.9154 77.3416 90.4751 77.525C90.0409 77.7085 89.5608 77.8002 89.0349 77.8002ZM98.334 76.7086V77.7085H93.5179V71.2871H98.2056V72.287H94.7105V73.9566H97.8111V74.9381H94.7105V76.7086H98.334ZM103.131 71.2871C103.688 71.2871 104.171 71.3788 104.58 71.5623C104.996 71.7458 105.314 72.0087 105.534 72.3512C105.755 72.6937 105.865 73.1004 105.865 73.5713C105.865 74.0361 105.755 74.4428 105.534 74.7913C105.314 75.1338 104.996 75.3968 104.58 75.5803C104.171 75.7637 103.688 75.8555 103.131 75.8555H101.682V77.7085H100.489V71.2871H103.131ZM103.076 74.8464C103.596 74.8464 103.99 74.7363 104.259 74.5161C104.528 74.296 104.663 73.981 104.663 73.5713C104.663 73.1615 104.528 72.8466 104.259 72.6264C103.99 72.4062 103.596 72.2962 103.076 72.2962H101.682V74.8464H103.076ZM112.047 74.3694C112.457 74.4794 112.769 74.669 112.983 74.9381C113.197 75.2011 113.304 75.5313 113.304 75.9288C113.304 76.4915 113.096 76.9288 112.68 77.2407C112.265 77.5525 111.662 77.7085 110.873 77.7085H107.828V71.2871H110.699C111.421 71.2871 111.983 71.4308 112.387 71.7182C112.79 72.0057 112.992 72.4124 112.992 72.9383C112.992 73.2747 112.91 73.5652 112.745 73.8098C112.586 74.0544 112.353 74.2409 112.047 74.3694ZM109.002 74.0299H110.598C110.983 74.0299 111.277 73.9535 111.479 73.8006C111.68 73.6477 111.781 73.4214 111.781 73.1218C111.781 72.8221 111.68 72.5958 111.479 72.4429C111.277 72.2839 110.983 72.2044 110.598 72.2044H109.002V74.0299ZM110.837 76.7912C111.68 76.7912 112.102 76.4731 112.102 75.8371C112.102 75.2133 111.68 74.9014 110.837 74.9014H109.002V76.7912H110.837ZM115.497 71.2871H116.672V75.8463L120.121 71.2871H121.231V77.7085H120.057V73.1585L116.607 77.7085H115.497V71.2871ZM126.811 77.8002C126.163 77.8002 125.575 77.6596 125.049 77.3783C124.53 77.0908 124.12 76.6964 123.82 76.1949C123.527 75.6934 123.38 75.1277 123.38 74.4978C123.38 73.8679 123.53 73.3022 123.829 72.8007C124.129 72.2992 124.539 71.9078 125.059 71.6265C125.585 71.3391 126.172 71.1954 126.82 71.1954C127.346 71.1954 127.826 71.2871 128.26 71.4706C128.694 71.654 129.061 71.9201 129.361 72.2686L128.59 72.9933C128.126 72.4919 127.554 72.2411 126.875 72.2411C126.435 72.2411 126.04 72.339 125.692 72.5347C125.343 72.7243 125.071 72.9903 124.875 73.3328C124.679 73.6752 124.582 74.0636 124.582 74.4978C124.582 74.932 124.679 75.3203 124.875 75.6628C125.071 76.0053 125.343 76.2744 125.692 76.4701C126.04 76.6597 126.435 76.7545 126.875 76.7545C127.554 76.7545 128.126 76.5007 128.59 75.9931L129.361 76.7269C129.061 77.0755 128.691 77.3416 128.251 77.525C127.817 77.7085 127.337 77.8002 126.811 77.8002ZM137 71.2871V77.7085H135.807V74.9565H132.486V77.7085H131.294V71.2871H132.486V73.9382H135.807V71.2871H137ZM142.59 73.4612C143.36 73.4612 143.95 73.6355 144.36 73.9841C144.776 74.3266 144.984 74.8372 144.984 75.516C144.984 76.2255 144.758 76.7697 144.305 77.1489C143.853 77.522 143.217 77.7085 142.397 77.7085H139.636V71.2871H140.81V73.4612H142.59ZM142.342 76.7912C142.807 76.7912 143.165 76.6841 143.415 76.4701C143.666 76.256 143.791 75.9441 143.791 75.5344C143.791 74.7577 143.308 74.3694 142.342 74.3694H140.81V76.7912H142.342ZM145.91 71.2871H147.085V77.7085H145.91V71.2871ZM149.724 71.2871H150.899V75.8463L154.348 71.2871H155.458V77.7085H154.284V73.1585L150.834 77.7085H149.724V71.2871ZM152.577 70.8559C152.027 70.8559 151.611 70.7428 151.33 70.5165C151.055 70.2902 150.914 69.96 150.908 69.5258H151.743C151.749 69.7521 151.822 69.9264 151.963 70.0487C152.103 70.171 152.308 70.2321 152.577 70.2321C152.84 70.2321 153.045 70.171 153.192 70.0487C153.345 69.9264 153.424 69.7521 153.431 69.5258H154.256C154.25 69.9539 154.103 70.2841 153.816 70.5165C153.534 70.7428 153.122 70.8559 152.577 70.8559ZM168.004 76.6994V79.1212H166.903V77.7085H161.454V71.2871H162.628V76.6994H165.866V71.2871H167.05V76.6994H168.004ZM174.737 76.7086V77.7085H169.921V71.2871H174.608V72.287H171.113V73.9566H174.214V74.9381H171.113V76.7086H174.737ZM182.598 71.2871V77.7085H181.405V74.9565H178.085V77.7085H176.892V71.2871H178.085V73.9382H181.405V71.2871H182.598ZM189.885 72.2962H187.757V77.7085H186.573V72.2962H184.454V71.2871H189.885V72.2962ZM194.381 71.2871C194.937 71.2871 195.421 71.3788 195.83 71.5623C196.246 71.7458 196.564 72.0087 196.784 72.3512C197.005 72.6937 197.115 73.1004 197.115 73.5713C197.115 74.0361 197.005 74.4428 196.784 74.7913C196.564 75.1338 196.246 75.3968 195.83 75.5803C195.421 75.7637 194.937 75.8555 194.381 75.8555H192.932V77.7085H191.739V71.2871H194.381ZM194.326 74.8464C194.846 74.8464 195.24 74.7363 195.509 74.5161C195.778 74.296 195.913 73.981 195.913 73.5713C195.913 73.1615 195.778 72.8466 195.509 72.6264C195.24 72.4062 194.846 72.2962 194.326 72.2962H192.932V74.8464H194.326Z" fill="#35302F"/>
<path d="M114.206 34.064V63.0648H106.168L95.1478 49.8902V63.0648H85.619V34.064H93.6563L104.677 47.2386V34.064H114.206Z" fill="#35302F"/>
<path d="M154.562 63.7275C151.496 63.7275 148.734 63.0922 146.276 61.8217C143.818 60.5236 141.885 58.7283 140.476 56.4359C139.095 54.1158 138.405 51.4919 138.405 48.5642C138.405 45.6365 139.095 43.0264 140.476 40.734C141.885 38.4139 143.818 36.6186 146.276 35.3481C148.734 34.0499 151.496 33.4009 154.562 33.4009C157.379 33.4009 159.893 33.898 162.102 34.8924C164.312 35.8867 166.135 37.3229 167.571 39.2011L161.398 44.7112C159.603 42.4464 157.49 41.314 155.059 41.314C153.016 41.314 151.372 41.9768 150.129 43.3026C148.886 44.6007 148.265 46.3546 148.265 48.5642C148.265 50.7738 148.886 52.5415 150.129 53.8672C151.372 55.1653 153.016 55.8144 155.059 55.8144C157.49 55.8144 159.603 54.682 161.398 52.4172L167.571 57.9273C166.135 59.8055 164.312 61.2417 162.102 62.236C159.893 63.2303 157.379 63.7275 154.562 63.7275Z" fill="#35302F"/>
<path d="M197.448 55.6903V63.0648H173.335V34.064H196.909V41.4385H182.947V44.8357H193.463V51.8788H182.947V55.6903H197.448Z" fill="#35302F"/>
<path fill-rule="evenodd" clip-rule="evenodd" d="M129.739 63.0648H124.715C124.615 62.8907 124.339 61.8681 124.04 60.7587C123.688 59.45 123.302 58.0206 123.134 57.7203L122.179 57.7252L121.125 56.6836L128.422 54.0734L122.669 54.4943C122.663 54.4501 122.658 54.3833 122.651 54.3041C122.626 53.9996 122.587 53.5124 122.473 53.4303L121.119 52.3671L128.735 49.6885C128.742 49.663 128.758 49.6526 128.774 49.6423C128.783 49.6369 128.791 49.6315 128.799 49.6238L124.189 49.9789C123.928 49.9851 123.715 50.0226 123.503 50.06C123.246 50.1053 122.99 50.1505 122.65 50.1394L122.659 49.135L121.053 48.0211L128.743 45.3119L122.639 45.7185L122.597 44.7156L121.097 43.5328L128.194 41.2144L122.478 41.2581L122.478 36.8573L131.321 33.9096L131.326 40.0741C131.48 40.2091 131.765 40.4178 132.074 40.6448C132.599 41.0302 133.196 41.4684 133.351 41.6883C132.577 42.3277 131.864 42.9225 131.311 43.4268C131.313 43.761 131.3 43.9824 131.291 44.13C131.281 44.3108 131.277 44.3812 131.315 44.4131C131.738 44.7679 132.131 45.0721 132.542 45.3892C132.806 45.5933 133.077 45.8027 133.367 46.0344C132.555 46.74 132.048 47.1607 131.316 47.6882L131.327 48.7662C131.44 48.9346 132.007 49.3602 132.529 49.752C132.858 49.9994 133.17 50.2333 133.338 50.3805C133.049 50.6106 132.816 50.7934 132.617 50.9491C132.051 51.3931 131.764 51.618 131.276 52.0963C131.276 52.0963 131.251 52.801 131.246 53.2565C131.763 53.5781 132.126 53.8368 132.507 54.1078C132.77 54.2956 133.043 54.4893 133.38 54.7141C132.772 55.2786 132.27 55.6659 131.717 56.0921C131.588 56.1915 131.456 56.293 131.32 56.3993L129.739 63.0648ZM131.318 31.071L122.478 34.0179L122.478 29.5186H117.905C117.905 24.9891 121.414 21.4048 125.693 21.4048V24.9134H128.366V21.4048C133.036 21.4048 135.887 24.9482 135.887 29.5186H131.317L131.318 31.071Z" fill="#35302F"/>
</svg>
